# This file uses centimeters as units for non-parametric coordinates.

mtllib joycon demo.mtl
g default
v -0.857428 -3.465536 -0.539497
v -0.857428 -3.465536 0.377477
v -0.857428 3.228568 -0.539498
v -0.857428 3.228568 0.377477
v 0.993952 2.783940 -0.539497
v 0.993952 2.783940 0.377477
v 0.960815 -3.029890 -0.539497
v 0.960815 -3.029890 0.377477
v 0.116309 3.228568 -0.539498
v 0.116309 3.228568 0.377477
v 0.116309 -3.465536 0.377477
v 0.116309 -3.465536 -0.539497
v 1.354108 1.996076 0.377477
v 1.354108 1.996076 -0.539497
v 0.116309 1.996076 -0.539497
v -0.857428 1.996076 -0.539497
v -0.857428 1.996076 0.377477
v 0.116309 1.996076 0.377477
v 0.668651 -3.247713 -0.539497
v 0.668651 -3.247713 0.377477
v 0.735208 1.996076 0.377477
v 0.630217 3.067261 0.377477
v 0.630217 3.067261 -0.539498
v 0.735208 1.996076 -0.539497
v 1.227404 2.424320 0.905318
v 0.682712 2.531669 0.905319
v 0.116309 2.612322 0.905319
v -0.857428 2.612322 0.905319
v -0.857428 2.612322 -0.539497
v 0.116309 2.612322 -0.539497
v 0.682712 2.531669 -0.539497
v 1.227404 2.424320 -0.539497
v -0.857428 -2.140625 0.377477
v 0.116309 -2.140625 0.377477
v 0.735208 -2.140625 0.377477
v 1.354108 -2.140625 0.377477
v 1.354108 -2.140625 -0.539497
v 0.735208 -2.140625 -0.539497
v 0.116309 -2.140625 -0.539497
v -0.857428 -2.140625 -0.539497
v -0.857428 -2.803081 0.377477
v 0.116309 -2.803081 0.377477
v 0.735208 -2.803081 0.377477
v 1.227044 -2.682068 0.377477
v 1.227044 -2.682068 -0.539497
v 0.735208 -2.803081 -0.539497
v 0.116309 -2.803081 -0.539497
v -0.857428 -2.803081 -0.539497
v 0.116309 3.111003 0.546723
v 0.116309 2.900563 0.707511
v -0.857428 2.999709 0.573506
v -0.857428 2.999709 -0.539498
v 0.116309 2.999709 -0.539498
v 0.649712 2.868354 -0.539498
v 1.080651 2.650385 -0.539497
v 1.080651 2.650385 0.573505
v 0.649712 2.868354 0.573505
vt 0.375000 0.000000
vt 0.625000 0.000000
vt 0.375000 0.250000
vt 0.625000 0.250000
vt 0.375000 0.500000
vt 0.625000 0.500000
vt 0.375000 0.750000
vt 0.625000 0.750000
vt 0.375000 1.000000
vt 0.625000 1.000000
vt 0.875000 0.000000
vt 0.875000 0.250000
vt 0.125000 0.000000
vt 0.125000 0.250000
vt 0.264925 0.250000
vt 0.375000 0.360075
vt 0.625000 0.360075
vt 0.735075 0.250000
vt 0.625000 0.889925
vt 0.735075 0.000000
vt 0.264925 0.000000
vt 0.375000 0.889925
vt 0.625000 0.547072
vt 0.875000 0.202928
vt 0.125000 0.202928
vt 0.375000 0.547072
vt 0.264925 0.202928
vt 0.375000 0.202928
vt 0.625000 0.202928
vt 0.735075 0.202928
vt 0.194963 0.000000
vt 0.375000 0.819963
vt 0.625000 0.819963
vt 0.805037 0.000000
vt 0.805037 0.202928
vt 0.625000 0.430037
vt 0.805037 0.250000
vt 0.194963 0.250000
vt 0.375000 0.430037
vt 0.194963 0.202928
vt 0.625000 0.523536
vt 0.875000 0.226464
vt 0.805037 0.226464
vt 0.735075 0.226464
vt 0.625000 0.226464
vt 0.375000 0.226464
vt 0.264925 0.226464
vt 0.194963 0.226464
vt 0.125000 0.226464
vt 0.375000 0.523536
vt 0.625000 0.049227
vt 0.735075 0.049227
vt 0.805037 0.049227
vt 0.625000 0.700773
vt 0.875000 0.049227
vt 0.125000 0.049227
vt 0.375000 0.700773
vt 0.194963 0.049227
vt 0.264925 0.049227
vt 0.375000 0.049227
vt 0.625000 0.024614
vt 0.735075 0.024614
vt 0.805037 0.024614
vt 0.625000 0.725386
vt 0.875000 0.024614
vt 0.125000 0.024614
vt 0.375000 0.725386
vt 0.194963 0.024614
vt 0.264925 0.024614
vt 0.375000 0.024614
vt 0.735075 0.242453
vt 0.735075 0.235284
vt 0.625000 0.241259
vt 0.375000 0.241259
vt 0.264925 0.241259
vt 0.194963 0.241259
vt 0.125000 0.241259
vt 0.375000 0.508741
vt 0.625000 0.508741
vt 0.875000 0.241259
vt 0.805037 0.241259
vn -1.000000 0.000000 0.000000
vn -1.000000 0.000000 0.000000
vn -1.000000 -0.000000 0.000000
vn -1.000000 -0.000000 0.000000
vn 0.107799 0.994173 -0.000000
vn 0.107799 0.994173 -0.000000
vn 0.451929 0.892054 -0.000000
vn 0.451929 0.892054 -0.000000
vn 0.998246 0.059211 -0.000000
vn 0.999395 0.034784 -0.000000
vn 0.920537 0.390656 -0.000000
vn 0.916000 0.401178 -0.000000
vn 0.458453 -0.888718 -0.000000
vn 0.458453 -0.888718 -0.000000
vn 0.141302 -0.989967 -0.000000
vn 0.141302 -0.989967 -0.000000
vn -0.008632 -0.107447 0.994173
vn 0.057384 -0.267493 0.961850
vn 0.010176 -0.181747 0.983293
vn -0.002810 -0.109165 0.994020
vn -0.000000 -0.000000 -1.000000
vn -0.000000 -0.000000 -1.000000
vn -0.000000 0.000000 -1.000000
vn -0.000000 -0.000000 -1.000000
vn 0.000000 1.000000 0.000000
vn 0.000000 1.000000 0.000000
vn -0.014938 -0.169891 0.985350
vn 0.000000 -0.110377 0.993890
vn 0.000000 -1.000000 0.000000
vn 0.000000 -1.000000 0.000000
vn -0.000000 0.000000 -1.000000
vn -0.000000 -0.000000 -1.000000
vn 0.999631 -0.027151 -0.000000
vn 0.999631 -0.027151 -0.000000
vn -0.000000 0.000000 -1.000000
vn -0.000000 0.000000 -1.000000
vn -0.000000 0.000000 -1.000000
vn -1.000000 0.000000 0.000000
vn -1.000000 0.000000 0.000000
vn 0.000000 0.000000 1.000000
vn 0.000000 0.000000 1.000000
vn 0.000000 0.000000 1.000000
vn 0.597714 -0.801709 -0.000000
vn 0.597714 -0.801709 -0.000000
vn -0.009395 -0.101835 0.994757
vn 0.000000 0.000000 1.000000
vn 0.038856 -0.418646 0.907318
vn 0.614503 0.788914 -0.000000
vn 0.614503 0.788914 -0.000000
vn -0.000000 0.000000 -1.000000
vn 0.000000 0.000000 -1.000000
vn -0.000000 0.000000 -1.000000
vn 0.316337 0.764075 0.562246
vn 0.255236 0.705926 0.660699
vn 0.052638 0.663166 0.746620
vn 0.352260 0.739573 0.573537
vn 0.071606 0.736505 0.672631
vn 0.043791 0.623382 0.780690
vn -0.029630 0.647814 0.761222
vn -1.000000 -0.000000 0.000000
vn -1.000000 -0.000000 0.000000
vn -0.000000 -0.000000 -1.000000
vn -0.000000 -0.000000 -1.000000
vn 0.000000 -0.000000 -1.000000
vn 0.000000 -0.000000 -1.000000
vn 0.838763 0.544496 -0.000000
vn 0.838763 0.544496 -0.000000
vn 0.000000 -0.000000 1.000000
vn 0.000000 0.000000 1.000000
vn 0.000000 -0.000000 1.000000
vn 0.000000 0.000000 1.000000
vn 0.914549 -0.404475 -0.000000
vn 0.914549 -0.404475 -0.000000
vn -0.000000 -0.000000 -1.000000
vn -0.000000 -0.000000 -1.000000
vn -0.000000 -0.000000 -1.000000
vn -0.000000 0.000000 -1.000000
vn -1.000000 0.000000 0.000000
vn -1.000000 0.000000 0.000000
vn 0.000000 0.000000 1.000000
vn 0.000000 0.000000 1.000000
vn 0.000000 0.000000 1.000000
vn 0.000000 0.000000 1.000000
vn 0.794086 -0.607806 -0.000000
vn 0.794086 -0.607806 -0.000000
vn -0.000000 -0.000000 -1.000000
vn -0.000000 -0.000000 -1.000000
vn -0.000000 -0.000000 -1.000000
vn -0.000000 0.000000 -1.000000
vn -1.000000 0.000000 0.000000
vn -1.000000 0.000000 0.000000
vn -1.000000 0.000000 0.000000
vn -1.000000 0.000000 0.000000
vn 0.000000 -0.000000 -1.000000
vn -0.000000 -0.000000 -1.000000
vn 0.000000 -0.000000 -1.000000
vn 0.000000 0.000000 -1.000000
vn 0.838763 0.544497 -0.000000
vn 0.838763 0.544497 -0.000000
vn 0.462980 0.733941 0.496971
vn -0.031986 0.725209 0.687786
s 1
g pCube1 group1
usemtl initialShadingGroup
f 16/28/1 17/29/2 28/45/3 29/46/4
s 2
f 9/16/5 10/17/6 22/36/7 23/39/8
s 3
f 13/23/9 14/26/10 32/50/11 25/41/12
s 4
f 19/32/13 20/33/14 11/19/15 12/22/16
s 5
f 21/35/17 26/43/18 27/44/19 18/30/20
s 6
f 30/47/21 31/48/22 24/40/23 15/27/24
s 2
f 10/17/6 9/16/5 3/3/25 4/4/26
s 5
f 18/30/20 27/44/19 28/45/27 17/29/28
s 4
f 12/22/16 11/19/15 2/10/29 1/9/30
s 6
f 30/47/21 15/27/24 16/28/31 29/46/32
s 3
f 36/54/33 37/57/34 14/26/10 13/23/9
s 6
f 38/58/35 39/59/36 15/27/24 24/40/23
f 15/27/24 39/59/36 40/60/37 16/28/31
s 1
f 40/60/38 33/51/39 17/29/2 16/28/1
s 5
f 34/52/40 18/30/20 17/29/28 33/51/41
f 34/52/40 35/53/42 21/35/17 18/30/20
s 4
f 7/7/43 8/8/44 20/33/14 19/32/13
s 5
f 13/24/45 21/35/17 35/53/42 36/55/46
f 25/42/47 26/43/18 21/35/17 13/24/45
s 2
f 23/39/8 22/36/7 6/6/48 5/5/49
s 6
f 14/25/50 24/40/23 31/48/22 32/49/51
f 37/56/52 38/58/35 24/40/23 14/25/50
s 5
f 56/80/53 57/81/54 26/43/18 25/42/47
f 49/71/55 57/81/54 22/37/56 10/18/57
f 28/45/27 27/44/19 50/72/58 49/71/55 51/73/59
s 1
f 29/46/4 28/45/3 51/73/60 52/74/61
s 6
f 53/75/62 30/47/21 29/46/32 52/74/63
f 53/75/62 54/76/64 31/48/22 30/47/21
f 32/49/51 31/48/22 54/76/64 55/77/65
s 3
f 25/41/12 32/50/11 55/78/66 56/79/67
s 5
f 42/62/68 34/52/40 33/51/41 41/61/69
f 42/62/68 43/63/70 35/53/42 34/52/40
f 36/55/46 35/53/42 43/63/70 44/65/71
s 3
f 44/64/72 45/67/73 37/57/34 36/54/33
s 6
f 45/66/74 46/68/75 38/58/35 37/56/52
f 46/68/75 47/69/76 39/59/36 38/58/35
f 39/59/36 47/69/76 48/70/77 40/60/37
s 1
f 48/70/78 41/61/79 33/51/39 40/60/38
s 5
f 11/20/80 42/62/68 41/61/69 2/2/81
f 20/34/82 43/63/70 42/62/68 11/20/80
f 44/65/71 43/63/70 20/34/82 8/11/83
s 3
f 7/7/84 45/67/73 44/64/72 8/8/85
s 6
f 19/31/86 46/68/75 45/66/74 7/13/87
f 12/21/88 47/69/76 46/68/75 19/31/86
f 47/69/76 12/21/88 1/1/89 48/70/77
s 1
f 2/2/90 41/61/79 48/70/78 1/1/91
f 52/74/61 51/73/60 4/4/92 3/3/93
s 6
f 9/15/94 53/75/62 52/74/63 3/3/95
f 23/38/96 54/76/64 53/75/62 9/15/94
f 55/77/65 54/76/64 23/38/96 5/14/97
s 3
f 56/79/67 55/78/66 5/5/98 6/6/99
s 5
f 6/12/100 22/37/56 57/81/54 56/80/53
f 27/44/19 26/43/18 57/81/54 49/71/55 50/72/58
f 49/71/55 10/18/57 4/4/101 51/73/59
